<svg className="svg-img" xmlns="http://www.w3.org/2000/svg" xmlns:xlink="http://www.w3.org/1999/xlink" width="415" zoomAndPan="magnify" viewBox="0 0 311.25 229.499992" height="306" preserveAspectRatio="xMidYMid meet" version="1.0">
  <defs>
    <clipPath id="de4790ed98">
      <path d="M 86 49 L 279.304688 49 L 279.304688 197.625 L 86 197.625 Z M 86 49 " clip-rule="nonzero" />
    </clipPath>
    <clipPath id="32c88c2538">
      <path d="M 86 49 L 279.304688 49 L 279.304688 80 L 86 80 Z M 86 49 " clip-rule="nonzero" />
    </clipPath>
    <clipPath id="11f7281108">
      <path d="M 30.902344 31.527344 L 224 31.527344 L 224 180 L 30.902344 180 Z M 30.902344 31.527344 " clip-rule="nonzero" />
    </clipPath>
    <clipPath id="30c088c00f">
      <path d="M 30.902344 31.527344 L 224 31.527344 L 224 62 L 30.902344 62 Z M 30.902344 31.527344 " clip-rule="nonzero" />
    </clipPath>
  </defs>
  <path fill="#ffffff" d="M 276.605469 187.035156 C 276.605469 191.320312 273.144531 194.789062 268.878906 194.789062 L 96.765625 194.789062 C 92.5 194.789062 89.039062 191.320312 89.039062 187.035156 L 89.039062 59.773438 C 89.039062 55.488281 92.5 52.019531 96.765625 52.019531 L 268.878906 52.019531 C 273.144531 52.019531 276.605469 55.488281 276.605469 59.773438 L 276.605469 187.035156 " fill-opacity="1" fill-rule="nonzero" />
  <g clip-path="url(#de4790ed98)">
    <path fill="#292626" d="M 276.605469 187.035156 L 273.925781 187.035156 C 273.925781 188.441406 273.367188 189.6875 272.457031 190.613281 C 271.523438 191.535156 270.28125 192.105469 268.878906 192.105469 L 96.765625 192.105469 C 95.363281 192.105469 94.117188 191.535156 93.195312 190.621094 C 92.273438 189.6875 91.71875 188.441406 91.71875 187.035156 L 91.71875 59.773438 C 91.71875 58.367188 92.273438 57.109375 93.195312 56.199219 C 94.117188 55.273438 95.363281 54.703125 96.765625 54.703125 L 268.878906 54.703125 C 270.28125 54.703125 271.523438 55.273438 272.457031 56.199219 C 273.367188 57.109375 273.925781 58.367188 273.925781 59.773438 L 273.925781 187.035156 L 279.285156 187.035156 L 279.285156 59.773438 C 279.292969 56.90625 278.117188 54.273438 276.242188 52.394531 C 274.363281 50.503906 271.738281 49.335938 268.878906 49.335938 L 96.765625 49.335938 C 93.894531 49.335938 91.277344 50.503906 89.402344 52.394531 C 87.527344 54.273438 86.359375 56.90625 86.359375 59.773438 L 86.359375 187.035156 C 86.359375 189.914062 87.527344 192.535156 89.402344 194.414062 C 91.277344 196.304688 93.894531 197.472656 96.765625 197.472656 L 268.878906 197.472656 C 271.738281 197.472656 274.363281 196.304688 276.242188 194.414062 C 278.117188 192.535156 279.292969 189.914062 279.285156 187.035156 L 276.605469 187.035156 " fill-opacity="1" fill-rule="nonzero" />
  </g>
  <path fill="#43727a" d="M 268.878906 52.019531 L 96.765625 52.019531 C 92.5 52.019531 89.039062 55.488281 89.039062 59.773438 L 89.039062 76.570312 L 276.605469 76.570312 L 276.605469 59.773438 C 276.605469 55.488281 273.144531 52.019531 268.878906 52.019531 " fill-opacity="1" fill-rule="nonzero" />
  <g clip-path="url(#32c88c2538)">
    <path fill="#292626" d="M 268.878906 52.019531 L 268.878906 49.335938 L 96.765625 49.335938 C 93.894531 49.335938 91.277344 50.503906 89.402344 52.394531 C 87.527344 54.273438 86.359375 56.90625 86.359375 59.773438 L 86.359375 76.570312 C 86.359375 77.277344 86.636719 77.964844 87.140625 78.472656 C 87.636719 78.964844 88.332031 79.253906 89.039062 79.253906 L 276.605469 79.253906 C 277.3125 79.253906 278.007812 78.964844 278.5 78.472656 C 279.003906 77.964844 279.285156 77.277344 279.285156 76.570312 L 279.285156 59.773438 C 279.292969 56.90625 278.117188 54.273438 276.238281 52.394531 C 274.363281 50.503906 271.738281 49.335938 268.878906 49.335938 L 268.878906 54.703125 C 270.28125 54.703125 271.523438 55.273438 272.457031 56.199219 C 273.367188 57.109375 273.925781 58.367188 273.925781 59.773438 L 273.925781 73.886719 L 91.71875 73.886719 L 91.71875 59.773438 C 91.71875 58.367188 92.273438 57.109375 93.195312 56.199219 C 94.117188 55.273438 95.363281 54.703125 96.765625 54.703125 L 268.878906 54.703125 L 268.878906 52.019531 " fill-opacity="1" fill-rule="nonzero" />
  </g>
  <path fill="#5f7161" d="M 187.015625 147.632812 L 110.835938 147.632812 L 110.835938 92.066406 L 187.015625 92.066406 L 187.015625 147.632812 " fill-opacity="1" fill-rule="nonzero" />
  <path fill="#292626" d="M 187.015625 147.632812 L 187.015625 144.949219 L 113.515625 144.949219 L 113.515625 94.753906 L 184.339844 94.753906 L 184.339844 147.632812 L 187.015625 147.632812 L 187.015625 144.949219 L 187.015625 147.632812 L 189.695312 147.632812 L 189.695312 92.066406 C 189.695312 91.367188 189.40625 90.671875 188.902344 90.175781 C 188.410156 89.671875 187.722656 89.382812 187.015625 89.382812 L 110.835938 89.382812 C 110.128906 89.382812 109.441406 89.671875 108.9375 90.175781 C 108.445312 90.671875 108.15625 91.367188 108.15625 92.066406 L 108.15625 147.632812 C 108.15625 148.332031 108.445312 149.027344 108.9375 149.523438 C 109.441406 150.027344 110.128906 150.316406 110.835938 150.316406 L 187.015625 150.316406 C 187.722656 150.316406 188.410156 150.027344 188.902344 149.523438 C 189.40625 149.027344 189.695312 148.332031 189.695312 147.632812 L 187.015625 147.632812 " fill-opacity="1" fill-rule="nonzero" />
  <path fill="#ffffff" d="M 221.179688 169.273438 C 221.179688 173.558594 217.707031 177.027344 213.441406 177.027344 L 41.332031 177.027344 C 37.066406 177.027344 33.597656 173.558594 33.597656 169.273438 L 33.597656 42.011719 C 33.597656 37.726562 37.066406 34.257812 41.332031 34.257812 L 213.441406 34.257812 C 217.707031 34.257812 221.179688 37.726562 221.179688 42.011719 L 221.179688 169.273438 " fill-opacity="1" fill-rule="nonzero" />
  <g clip-path="url(#11f7281108)">
    <path fill="#292626" d="M 221.179688 169.273438 L 218.492188 169.273438 C 218.492188 170.679688 217.933594 171.925781 217.023438 172.847656 C 216.089844 173.773438 214.847656 174.339844 213.441406 174.339844 L 41.332031 174.339844 C 39.925781 174.339844 38.683594 173.773438 37.761719 172.847656 C 36.839844 171.925781 36.273438 170.679688 36.273438 169.273438 L 36.273438 42.011719 C 36.273438 40.605469 36.839844 39.359375 37.761719 38.433594 C 38.683594 37.511719 39.925781 36.941406 41.332031 36.941406 L 213.441406 36.941406 C 214.847656 36.941406 216.089844 37.511719 217.023438 38.433594 C 217.933594 39.359375 218.492188 40.605469 218.492188 42.011719 L 218.492188 169.273438 L 223.859375 169.273438 L 223.859375 42.011719 C 223.859375 39.144531 222.679688 36.511719 220.804688 34.632812 C 218.929688 32.742188 216.304688 31.570312 213.441406 31.570312 L 41.332031 31.570312 C 38.46875 31.570312 35.84375 32.742188 33.96875 34.632812 C 32.085938 36.511719 30.917969 39.144531 30.917969 42.011719 L 30.917969 169.273438 C 30.917969 172.152344 32.085938 174.769531 33.96875 176.652344 C 35.84375 178.539062 38.46875 179.710938 41.332031 179.710938 L 213.441406 179.710938 C 216.304688 179.710938 218.929688 178.539062 220.804688 176.652344 C 222.679688 174.769531 223.859375 172.152344 223.859375 169.273438 L 221.179688 169.273438 " fill-opacity="1" fill-rule="nonzero" />
  </g>
  <path fill="#5f7161" d="M 213.441406 34.257812 L 41.332031 34.257812 C 37.066406 34.257812 33.597656 37.726562 33.597656 42.011719 L 33.597656 58.808594 L 221.175781 58.808594 L 221.175781 42.011719 C 221.175781 37.726562 217.703125 34.257812 213.4375 34.257812 " fill-opacity="1" fill-rule="nonzero" />
  <g clip-path="url(#30c088c00f)">
    <path fill="#292626" d="M 213.441406 34.257812 L 213.441406 31.570312 L 41.332031 31.570312 C 38.46875 31.570312 35.84375 32.742188 33.96875 34.632812 C 32.085938 36.511719 30.917969 39.144531 30.917969 42.011719 L 30.917969 58.808594 C 30.917969 59.515625 31.203125 60.203125 31.703125 60.707031 C 32.199219 61.203125 32.890625 61.492188 33.597656 61.492188 L 221.175781 61.492188 C 221.871094 61.492188 222.566406 61.203125 223.0625 60.707031 C 223.566406 60.203125 223.84375 59.515625 223.84375 58.808594 L 223.84375 42.011719 C 223.855469 39.144531 222.675781 36.511719 220.800781 34.632812 C 218.925781 32.742188 216.300781 31.570312 213.4375 31.570312 L 213.4375 36.941406 C 214.84375 36.941406 216.085938 37.511719 217.015625 38.433594 C 217.929688 39.359375 218.484375 40.605469 218.484375 42.011719 L 218.484375 56.121094 L 36.265625 56.121094 L 36.265625 42.011719 C 36.265625 40.605469 36.835938 39.359375 37.757812 38.433594 C 38.679688 37.511719 39.921875 36.941406 41.324219 36.941406 L 213.4375 36.941406 L 213.4375 34.257812 " fill-opacity="1" fill-rule="nonzero" />
  </g>
  <path fill="#5f7161" d="M 131.570312 129.859375 L 55.402344 129.859375 L 55.402344 74.304688 L 131.570312 74.304688 L 131.570312 129.859375 " fill-opacity="1" fill-rule="nonzero" />
  <path fill="#292626" d="M 131.570312 129.859375 L 131.570312 127.175781 L 58.078125 127.175781 L 58.078125 76.988281 L 128.890625 76.988281 L 128.890625 129.859375 L 131.570312 129.859375 L 131.570312 127.175781 L 131.570312 129.859375 L 134.25 129.859375 L 134.25 74.304688 C 134.25 73.605469 133.972656 72.90625 133.46875 72.414062 C 132.976562 71.910156 132.277344 71.621094 131.570312 71.621094 L 55.402344 71.621094 C 54.695312 71.621094 54.007812 71.910156 53.503906 72.414062 C 53.011719 72.90625 52.722656 73.605469 52.722656 74.304688 L 52.722656 129.859375 C 52.722656 130.566406 53.011719 131.265625 53.503906 131.761719 C 54.007812 132.265625 54.695312 132.542969 55.402344 132.542969 L 131.570312 132.542969 C 132.277344 132.542969 132.976562 132.265625 133.46875 131.761719 C 133.972656 131.265625 134.25 130.566406 134.25 129.859375 L 131.570312 129.859375 " fill-opacity="1" fill-rule="nonzero" />
  <path fill="#292626" d="M 146.402344 76.988281 L 208.289062 76.988281 C 209.769531 76.988281 210.96875 75.796875 210.96875 74.304688 C 210.96875 72.820312 209.769531 71.621094 208.289062 71.621094 L 146.402344 71.621094 C 144.925781 71.621094 143.722656 72.820312 143.722656 74.304688 C 143.722656 75.796875 144.925781 76.988281 146.402344 76.988281 " fill-opacity="1" fill-rule="nonzero" />
  <path fill="#292626" d="M 146.402344 89.265625 L 208.289062 89.265625 C 209.769531 89.265625 210.96875 88.0625 210.96875 86.578125 C 210.96875 85.097656 209.769531 83.894531 208.289062 83.894531 L 146.402344 83.894531 C 144.925781 83.894531 143.722656 85.097656 143.722656 86.578125 C 143.722656 88.0625 144.925781 89.265625 146.402344 89.265625 " fill-opacity="1" fill-rule="nonzero" />
  <path fill="#292626" d="M 146.402344 101.539062 L 208.289062 101.539062 C 209.769531 101.539062 210.96875 100.335938 210.96875 98.855469 C 210.96875 97.371094 209.769531 96.167969 208.289062 96.167969 L 146.402344 96.167969 C 144.925781 96.167969 143.722656 97.371094 143.722656 98.855469 C 143.722656 100.335938 144.925781 101.539062 146.402344 101.539062 " fill-opacity="1" fill-rule="nonzero" />
  <path fill="#292626" d="M 146.402344 113.816406 L 208.289062 113.816406 C 209.769531 113.816406 210.96875 112.613281 210.96875 111.128906 C 210.96875 109.648438 209.769531 108.445312 208.289062 108.445312 L 146.402344 108.445312 C 144.925781 108.445312 143.722656 109.648438 143.722656 111.128906 C 143.722656 112.613281 144.925781 113.816406 146.402344 113.816406 " fill-opacity="1" fill-rule="nonzero" />
  <path fill="#292626" d="M 146.402344 126.089844 L 208.289062 126.089844 C 209.769531 126.089844 210.96875 124.886719 210.96875 123.40625 C 210.96875 121.921875 209.769531 120.71875 208.289062 120.71875 L 146.402344 120.71875 C 144.925781 120.71875 143.722656 121.921875 143.722656 123.40625 C 143.722656 124.886719 144.925781 126.089844 146.402344 126.089844 " fill-opacity="1" fill-rule="nonzero" />
</svg>