<svg className="svg-img" xmlns="http://www.w3.org/2000/svg" xmlns:xlink="http://www.w3.org/1999/xlink" width="415" zoomAndPan="magnify" viewBox="0 0 311.25 229.499992" height="377" preserveAspectRatio="xMidYMid meet" version="1.0">
  <defs>
    <clipPath id="71fe7d67dd">
      <path d="M 80 43 L 290.613281 43 L 290.613281 204.949219 L 80 204.949219 Z M 80 43 " clip-rule="nonzero" />
    </clipPath>
    <clipPath id="753f5b37a2">
      <path d="M 80 43 L 290.613281 43 L 290.613281 76 L 80 76 Z M 80 43 " clip-rule="nonzero" />
    </clipPath>
    <clipPath id="721e9cd5ec">
      <path d="M 19.769531 23.886719 L 231 23.886719 L 231 186 L 19.769531 186 Z M 19.769531 23.886719 " clip-rule="nonzero" />
    </clipPath>
    <clipPath id="46149f7146">
      <path d="M 19.769531 23.886719 L 231 23.886719 L 231 57 L 19.769531 57 Z M 19.769531 23.886719 " clip-rule="nonzero" />
    </clipPath>
    <clipPath id="a0497d2cb7">
      <path d="M 34.398438 62.183594 L 219.203125 62.183594 L 219.203125 159.449219 L 34.398438 159.449219 Z M 34.398438 62.183594 " clip-rule="nonzero" />
    </clipPath>
    <clipPath id="3d86d1d8d8">
      <path d="M 91 78.222656 L 162.738281 78.222656 L 162.738281 150 L 91 150 Z M 91 78.222656 " clip-rule="nonzero" />
    </clipPath>
    <clipPath id="5368e43233">
      <path d="M 91 78.222656 L 162.738281 78.222656 L 162.738281 150 L 91 150 Z M 91 78.222656 " clip-rule="nonzero" />
    </clipPath>
  </defs>
  <path fill="#ffffff" d="M 287.671875 193.398438 C 287.671875 198.070312 283.894531 201.851562 279.246094 201.851562 L 91.582031 201.851562 C 86.929688 201.851562 83.15625 198.070312 83.15625 193.398438 L 83.15625 54.679688 C 83.15625 50.011719 86.929688 46.230469 91.582031 46.230469 L 279.246094 46.230469 C 283.894531 46.230469 287.671875 50.011719 287.671875 54.679688 L 287.671875 193.398438 " fill-opacity="1" fill-rule="nonzero" />
  <g clip-path="url(#71fe7d67dd)">
    <path fill="#292626" d="M 287.671875 193.398438 L 284.75 193.398438 C 284.75 194.933594 284.140625 196.289062 283.148438 197.296875 C 282.132812 198.304688 280.777344 198.925781 279.246094 198.925781 L 91.582031 198.925781 C 90.050781 198.925781 88.695312 198.304688 87.691406 197.308594 C 86.683594 196.289062 86.078125 194.933594 86.078125 193.398438 L 86.078125 54.679688 C 86.078125 53.148438 86.683594 51.777344 87.691406 50.78125 C 88.695312 49.777344 90.050781 49.15625 91.582031 49.15625 L 279.246094 49.15625 C 280.777344 49.15625 282.132812 49.777344 283.148438 50.78125 C 284.140625 51.777344 284.75 53.148438 284.75 54.679688 L 284.75 193.398438 L 290.589844 193.398438 L 290.589844 54.679688 C 290.601562 51.554688 289.316406 48.6875 287.273438 46.636719 C 285.226562 44.578125 282.367188 43.300781 279.246094 43.300781 L 91.582031 43.300781 C 88.449219 43.300781 85.597656 44.578125 83.554688 46.636719 C 81.507812 48.6875 80.234375 51.554688 80.234375 54.679688 L 80.234375 193.398438 C 80.234375 196.535156 81.507812 199.394531 83.554688 201.441406 C 85.597656 203.5 88.449219 204.777344 91.582031 204.777344 L 279.246094 204.777344 C 282.367188 204.777344 285.226562 203.5 287.273438 201.441406 C 289.316406 199.394531 290.601562 196.535156 290.589844 193.398438 L 287.671875 193.398438 " fill-opacity="1" fill-rule="nonzero" />
  </g>
  <path fill="#43727a" d="M 279.246094 46.230469 L 91.582031 46.230469 C 86.929688 46.230469 83.15625 50.011719 83.15625 54.679688 L 83.15625 72.988281 L 287.671875 72.988281 L 287.671875 54.679688 C 287.671875 50.011719 283.894531 46.230469 279.246094 46.230469 " fill-opacity="1" fill-rule="nonzero" />
  <g clip-path="url(#753f5b37a2)">
    <path fill="#292626" d="M 279.246094 46.230469 L 279.246094 43.300781 L 91.582031 43.300781 C 88.449219 43.300781 85.597656 44.578125 83.554688 46.636719 C 81.507812 48.6875 80.234375 51.554688 80.234375 54.679688 L 80.234375 72.988281 C 80.234375 73.761719 80.539062 74.511719 81.089844 75.0625 C 81.625 75.601562 82.386719 75.914062 83.15625 75.914062 L 287.671875 75.914062 C 288.441406 75.914062 289.199219 75.597656 289.738281 75.0625 C 290.289062 74.511719 290.589844 73.761719 290.589844 72.988281 L 290.589844 54.679688 C 290.601562 51.554688 289.316406 48.6875 287.273438 46.636719 C 285.226562 44.578125 282.367188 43.300781 279.246094 43.300781 L 279.246094 49.15625 C 280.777344 49.15625 282.132812 49.777344 283.148438 50.78125 C 284.140625 51.777344 284.75 53.148438 284.75 54.679688 L 284.75 70.0625 L 86.078125 70.0625 L 86.078125 54.679688 C 86.078125 53.148438 86.683594 51.777344 87.691406 50.78125 C 88.695312 49.777344 90.050781 49.15625 91.582031 49.15625 L 279.246094 49.15625 L 279.246094 46.230469 " fill-opacity="1" fill-rule="nonzero" />
  </g>
  <path fill="#5f7161" d="M 189.988281 150.449219 L 106.921875 150.449219 L 106.921875 89.882812 L 189.988281 89.882812 L 189.988281 150.449219 " fill-opacity="1" fill-rule="nonzero" />
  <path fill="#292626" d="M 189.988281 150.449219 L 189.988281 147.523438 L 109.84375 147.523438 L 109.84375 92.808594 L 187.066406 92.808594 L 187.066406 150.449219 L 189.988281 150.449219 L 189.988281 147.523438 L 189.988281 150.449219 L 192.910156 150.449219 L 192.910156 89.882812 C 192.910156 89.121094 192.59375 88.359375 192.042969 87.820312 C 191.507812 87.269531 190.757812 86.953125 189.988281 86.953125 L 106.921875 86.953125 C 106.152344 86.953125 105.402344 87.269531 104.855469 87.820312 C 104.316406 88.359375 104 89.121094 104 89.882812 L 104 150.449219 C 104 151.210938 104.316406 151.972656 104.855469 152.507812 C 105.402344 153.058594 106.152344 153.375 106.921875 153.375 L 189.988281 153.375 C 190.757812 153.375 191.507812 153.058594 192.042969 152.507812 C 192.59375 151.972656 192.910156 151.210938 192.910156 150.449219 L 189.988281 150.449219 " fill-opacity="1" fill-rule="nonzero" />
  <path fill="#ffffff" d="M 227.238281 174.035156 C 227.238281 178.707031 223.453125 182.488281 218.800781 182.488281 L 31.136719 182.488281 C 26.484375 182.488281 22.707031 178.707031 22.707031 174.035156 L 22.707031 35.320312 C 22.707031 30.648438 26.484375 26.867188 31.136719 26.867188 L 218.800781 26.867188 C 223.453125 26.867188 227.238281 30.648438 227.238281 35.320312 L 227.238281 174.035156 " fill-opacity="1" fill-rule="nonzero" />
  <g clip-path="url(#721e9cd5ec)">
    <path fill="#292626" d="M 227.238281 174.035156 L 224.304688 174.035156 C 224.304688 175.570312 223.699219 176.929688 222.703125 177.933594 C 221.6875 178.941406 220.332031 179.5625 218.800781 179.5625 L 31.136719 179.5625 C 29.605469 179.5625 28.25 178.941406 27.246094 177.933594 C 26.242188 176.929688 25.621094 175.570312 25.621094 174.035156 L 25.621094 35.320312 C 25.621094 33.785156 26.242188 32.425781 27.246094 31.421875 C 28.25 30.414062 29.605469 29.792969 31.136719 29.792969 L 218.800781 29.792969 C 220.332031 29.792969 221.6875 30.414062 222.703125 31.421875 C 223.699219 32.425781 224.304688 33.785156 224.304688 35.320312 L 224.304688 174.035156 L 230.160156 174.035156 L 230.160156 35.320312 C 230.160156 32.191406 228.875 29.324219 226.828125 27.277344 C 224.785156 25.214844 221.921875 23.941406 218.800781 23.941406 L 31.136719 23.941406 C 28.015625 23.941406 25.152344 25.214844 23.113281 27.277344 C 21.058594 29.324219 19.785156 32.191406 19.785156 35.320312 L 19.785156 174.035156 C 19.785156 177.175781 21.058594 180.03125 23.113281 182.078125 C 25.152344 184.140625 28.015625 185.414062 31.136719 185.414062 L 218.800781 185.414062 C 221.921875 185.414062 224.785156 184.140625 226.828125 182.078125 C 228.875 180.03125 230.160156 177.175781 230.160156 174.035156 L 227.238281 174.035156 " fill-opacity="1" fill-rule="nonzero" />
  </g>
  <path fill="#5f7161" d="M 218.800781 26.867188 L 31.136719 26.867188 C 26.484375 26.867188 22.707031 30.648438 22.707031 35.320312 L 22.707031 53.628906 L 227.230469 53.628906 L 227.230469 35.320312 C 227.230469 30.648438 223.445312 26.867188 218.796875 26.867188 " fill-opacity="1" fill-rule="nonzero" />
  <g clip-path="url(#46149f7146)">
    <path fill="#292626" d="M 218.800781 26.867188 L 218.800781 23.941406 L 31.136719 23.941406 C 28.015625 23.941406 25.152344 25.214844 23.113281 27.277344 C 21.058594 29.324219 19.785156 32.191406 19.785156 35.320312 L 19.785156 53.628906 C 19.785156 54.398438 20.09375 55.148438 20.636719 55.699219 C 21.179688 56.238281 21.933594 56.554688 22.707031 56.554688 L 227.230469 56.554688 C 227.992188 56.554688 228.75 56.238281 229.289062 55.699219 C 229.839844 55.148438 230.140625 54.398438 230.140625 53.628906 L 230.140625 35.320312 C 230.152344 32.191406 228.867188 29.324219 226.824219 27.277344 C 224.777344 25.214844 221.914062 23.941406 218.796875 23.941406 L 218.796875 29.792969 C 220.328125 29.792969 221.683594 30.414062 222.699219 31.421875 C 223.691406 32.425781 224.300781 33.785156 224.300781 35.320312 L 224.300781 50.699219 L 25.617188 50.699219 L 25.617188 35.320312 C 25.617188 33.785156 26.234375 32.425781 27.238281 31.421875 C 28.246094 30.414062 29.601562 29.792969 31.132812 29.792969 L 218.796875 29.792969 L 218.796875 26.867188 " fill-opacity="1" fill-rule="nonzero" />
  </g>
  <path fill="#5f7161" d="M 129.53125 131.074219 L 46.476562 131.074219 L 46.476562 70.519531 L 129.53125 70.519531 L 129.53125 131.074219 " fill-opacity="1" fill-rule="nonzero" />
  <path fill="#292626" d="M 129.53125 131.074219 L 129.53125 128.148438 L 49.398438 128.148438 L 49.398438 73.445312 L 126.609375 73.445312 L 126.609375 131.074219 L 129.53125 131.074219 L 129.53125 128.148438 L 129.53125 131.074219 L 132.453125 131.074219 L 132.453125 70.519531 C 132.453125 69.757812 132.148438 68.996094 131.601562 68.457031 C 131.0625 67.910156 130.304688 67.59375 129.53125 67.59375 L 46.476562 67.59375 C 45.707031 67.59375 44.960938 67.910156 44.410156 68.457031 C 43.871094 68.996094 43.558594 69.757812 43.558594 70.519531 L 43.558594 131.074219 C 43.558594 131.847656 43.871094 132.609375 44.410156 133.148438 C 44.960938 133.699219 45.707031 134 46.476562 134 L 129.53125 134 C 130.304688 134 131.0625 133.699219 131.601562 133.148438 C 132.148438 132.609375 132.453125 131.847656 132.453125 131.074219 L 129.53125 131.074219 " fill-opacity="1" fill-rule="nonzero" />
  <path fill="#292626" d="M 145.703125 73.445312 L 213.179688 73.445312 C 214.792969 73.445312 216.101562 72.144531 216.101562 70.519531 C 216.101562 68.902344 214.792969 67.59375 213.179688 67.59375 L 145.703125 67.59375 C 144.089844 67.59375 142.78125 68.902344 142.78125 70.519531 C 142.78125 72.144531 144.089844 73.445312 145.703125 73.445312 " fill-opacity="1" fill-rule="nonzero" />
  <path fill="#292626" d="M 145.703125 86.824219 L 213.179688 86.824219 C 214.792969 86.824219 216.101562 85.515625 216.101562 83.898438 C 216.101562 82.285156 214.792969 80.972656 213.179688 80.972656 L 145.703125 80.972656 C 144.089844 80.972656 142.78125 82.285156 142.78125 83.898438 C 142.78125 85.515625 144.089844 86.824219 145.703125 86.824219 " fill-opacity="1" fill-rule="nonzero" />
  <path fill="#292626" d="M 145.703125 100.207031 L 213.179688 100.207031 C 214.792969 100.207031 216.101562 98.894531 216.101562 97.28125 C 216.101562 95.664062 214.792969 94.351562 213.179688 94.351562 L 145.703125 94.351562 C 144.089844 94.351562 142.78125 95.664062 142.78125 97.28125 C 142.78125 98.894531 144.089844 100.207031 145.703125 100.207031 " fill-opacity="1" fill-rule="nonzero" />
  <path fill="#292626" d="M 145.703125 113.585938 L 213.179688 113.585938 C 214.792969 113.585938 216.101562 112.273438 216.101562 110.660156 C 216.101562 109.042969 214.792969 107.734375 213.179688 107.734375 L 145.703125 107.734375 C 144.089844 107.734375 142.78125 109.042969 142.78125 110.660156 C 142.78125 112.273438 144.089844 113.585938 145.703125 113.585938 " fill-opacity="1" fill-rule="nonzero" />
  <path fill="#292626" d="M 145.703125 126.964844 L 213.179688 126.964844 C 214.792969 126.964844 216.101562 125.65625 216.101562 124.039062 C 216.101562 122.425781 214.792969 121.113281 213.179688 121.113281 L 145.703125 121.113281 C 144.089844 121.113281 142.78125 122.425781 142.78125 124.039062 C 142.78125 125.65625 144.089844 126.964844 145.703125 126.964844 " fill-opacity="1" fill-rule="nonzero" />
  <g clip-path="url(#a0497d2cb7)">
    <path fill="#ffffff" d="M 34.402344 62.183594 L 219.199219 62.183594 L 219.199219 159.449219 L 34.402344 159.449219 L 34.402344 62.183594 " fill-opacity="1" fill-rule="nonzero" />
  </g>
  <path fill="#5f7161" d="M 125.921875 101.078125 L 115.734375 90.929688 L 103.617188 103.046875 L 144.667969 144.097656 L 156.785156 131.980469 L 125.921875 101.117188 Z M 125.921875 101.078125 " fill-opacity="1" fill-rule="evenodd" />
  <path fill="#5f7161" d="M 101.8125 101.285156 L 113.972656 89.125 L 108.898438 84.09375 C 107.222656 82.417969 105.042969 81.578125 102.820312 81.578125 C 100.640625 81.578125 98.417969 82.417969 96.78125 84.09375 C 95.105469 85.730469 94.265625 87.953125 94.265625 90.132812 C 94.265625 92.355469 95.105469 94.535156 96.78125 96.210938 Z M 101.8125 101.285156 " fill-opacity="1" fill-rule="evenodd" />
  <path fill="#5f7161" d="M 157.789062 134.535156 L 147.222656 145.101562 L 160.433594 147.746094 Z M 157.789062 134.535156 " fill-opacity="1" fill-rule="evenodd" />
  <path fill="#5f7161" d="M 142.148438 113.78125 L 160.265625 95.667969 L 146.722656 82.082031 L 144.75 84.09375 L 149.320312 88.664062 C 149.824219 89.167969 149.824219 89.964844 149.320312 90.46875 C 148.859375 90.972656 148.0625 90.972656 147.558594 90.46875 L 142.945312 85.855469 L 138.964844 89.839844 L 141.101562 91.976562 C 141.5625 92.480469 141.5625 93.277344 141.101562 93.738281 C 140.597656 94.242188 139.800781 94.242188 139.300781 93.738281 L 137.160156 91.640625 L 133.175781 95.625 L 137.789062 100.238281 C 138.292969 100.742188 138.292969 101.539062 137.789062 102 C 137.285156 102.503906 136.488281 102.503906 136.027344 102 L 131.417969 97.386719 L 128.605469 100.195312 Z M 142.148438 113.78125 " fill-opacity="1" fill-rule="evenodd" />
  <path fill="#5f7161" d="M 126.46875 129.464844 L 112.882812 115.917969 L 110.074219 118.730469 L 114.6875 123.339844 C 115.1875 123.804688 115.1875 124.597656 114.6875 125.101562 C 114.222656 125.605469 113.429688 125.605469 112.925781 125.101562 L 108.3125 120.492188 L 104.328125 124.472656 L 112.253906 132.398438 C 112.714844 132.902344 112.714844 133.699219 112.253906 134.203125 C 111.75 134.664062 110.953125 134.664062 110.449219 134.203125 L 102.527344 126.277344 L 98.542969 130.261719 L 103.15625 134.871094 C 103.65625 135.375 103.65625 136.171875 103.15625 136.632812 C 102.652344 137.136719 101.855469 137.136719 101.351562 136.632812 L 96.78125 132.0625 L 94.769531 134.035156 L 108.355469 147.578125 Z M 126.46875 129.464844 " fill-opacity="1" fill-rule="evenodd" />
  <g clip-path="url(#3d86d1d8d8)">
    <path fill="#000001" d="M 162.234375 95.835938 L 142.359375 115.753906 C 141.855469 116.253906 141.058594 116.253906 140.558594 115.753906 L 125.210938 100.40625 C 124.75 99.902344 124.75 99.105469 125.210938 98.644531 L 145.128906 78.726562 C 145.628906 78.222656 146.425781 78.222656 146.886719 78.726562 L 162.234375 94.074219 C 162.738281 94.578125 162.738281 95.375 162.234375 95.835938 Z M 141.480469 113.070312 L 159.59375 94.953125 L 146.007812 81.410156 L 127.894531 99.523438 Z M 128.4375 129.671875 L 108.523438 149.546875 C 108.0625 150.050781 107.265625 150.050781 106.761719 149.546875 L 91.414062 134.203125 C 90.910156 133.742188 90.910156 132.945312 91.414062 132.441406 L 111.332031 112.523438 C 111.792969 112.0625 112.589844 112.0625 113.09375 112.523438 L 128.4375 127.871094 C 128.941406 128.375 128.941406 129.167969 128.4375 129.671875 Z M 107.640625 146.90625 L 125.753906 128.792969 L 112.210938 115.207031 L 94.097656 133.320312 Z M 107.640625 146.90625 " fill-opacity="1" fill-rule="nonzero" />
  </g>
  <path fill="#000001" d="M 143.15625 82.5 C 142.652344 82 141.855469 82 141.355469 82.5 C 140.890625 82.960938 140.890625 83.757812 141.355469 84.261719 L 146.847656 89.753906 C 147.351562 90.257812 148.144531 90.257812 148.648438 89.753906 C 149.109375 89.253906 149.109375 88.457031 148.648438 87.992188 Z M 143.15625 82.5 " fill-opacity="1" fill-rule="nonzero" />
  <path fill="#000001" d="M 137.371094 88.246094 C 136.867188 87.785156 136.070312 87.785156 135.609375 88.246094 C 135.105469 88.75 135.105469 89.546875 135.609375 90.046875 L 138.628906 93.066406 C 139.089844 93.570312 139.886719 93.570312 140.390625 93.066406 C 140.890625 92.566406 140.890625 91.769531 140.390625 91.265625 Z M 137.371094 88.246094 " fill-opacity="1" fill-rule="nonzero" />
  <path fill="#000001" d="M 131.582031 94.03125 C 131.121094 93.527344 130.324219 93.527344 129.824219 94.03125 C 129.320312 94.535156 129.320312 95.332031 129.824219 95.835938 L 135.316406 101.328125 C 135.820312 101.789062 136.617188 101.789062 137.078125 101.328125 C 137.578125 100.824219 137.578125 100.027344 137.078125 99.523438 Z M 131.582031 94.03125 " fill-opacity="1" fill-rule="nonzero" />
  <path fill="#000001" d="M 108.523438 117.136719 C 108.019531 116.632812 107.222656 116.632812 106.71875 117.136719 C 106.214844 117.640625 106.214844 118.4375 106.71875 118.898438 L 112.210938 124.390625 C 112.714844 124.894531 113.511719 124.894531 114.015625 124.390625 C 114.476562 123.929688 114.476562 123.132812 114.015625 122.628906 Z M 108.523438 117.136719 " fill-opacity="1" fill-rule="nonzero" />
  <path fill="#000001" d="M 102.734375 122.921875 C 102.234375 122.417969 101.4375 122.417969 100.933594 122.921875 C 100.472656 123.382812 100.472656 124.179688 100.933594 124.683594 L 109.78125 133.488281 C 110.242188 133.992188 111.039062 133.992188 111.542969 133.488281 C 112.042969 132.984375 112.042969 132.1875 111.542969 131.726562 Z M 102.734375 122.921875 " fill-opacity="1" fill-rule="nonzero" />
  <path fill="#000001" d="M 96.949219 128.667969 C 96.445312 128.207031 95.648438 128.207031 95.1875 128.667969 C 94.683594 129.167969 94.683594 129.964844 95.1875 130.46875 L 100.679688 135.960938 C 101.183594 136.425781 101.980469 136.425781 102.441406 135.960938 C 102.945312 135.460938 102.945312 134.664062 102.441406 134.160156 Z M 96.949219 128.667969 " fill-opacity="1" fill-rule="nonzero" />
  <g clip-path="url(#5368e43233)">
    <path fill="#000001" d="M 96.070312 83.382812 C 94.390625 85.058594 93.554688 87.238281 93.554688 89.460938 C 93.554688 91.640625 94.390625 93.863281 96.070312 95.5 L 144.582031 144.011719 L 159.761719 147.074219 L 156.699219 131.894531 L 108.1875 83.382812 C 106.550781 81.703125 104.328125 80.867188 102.148438 80.867188 C 99.925781 80.867188 97.746094 81.703125 96.070312 83.382812 Z M 94.308594 81.621094 C 96.445312 79.441406 99.296875 78.351562 102.148438 78.351562 C 105 78.351562 107.808594 79.441406 109.988281 81.621094 L 158.753906 130.34375 C 158.921875 130.554688 159.046875 130.761719 159.089844 131.015625 L 157.875 131.265625 L 159.089844 131.015625 L 162.570312 148.375 C 162.613281 148.542969 162.613281 148.75 162.570312 148.917969 C 162.445312 149.589844 161.773438 150.050781 161.101562 149.882812 L 143.742188 146.402344 C 143.492188 146.363281 143.242188 146.277344 143.074219 146.066406 L 94.308594 97.300781 C 92.128906 95.121094 91.035156 92.3125 91.035156 89.460938 C 91.035156 86.609375 92.128906 83.757812 94.308594 81.621094 Z M 94.308594 81.621094 " fill-opacity="1" fill-rule="nonzero" />
  </g>
  <path fill="#000001" d="M 158.753906 132.148438 C 159.257812 131.6875 159.257812 130.890625 158.753906 130.386719 C 158.25 129.882812 157.453125 129.882812 156.992188 130.386719 L 143.074219 144.308594 C 142.570312 144.769531 142.570312 145.566406 143.074219 146.066406 C 143.574219 146.570312 144.371094 146.570312 144.832031 146.066406 Z M 158.753906 132.148438 " fill-opacity="1" fill-rule="nonzero" />
  <path fill="#000001" d="M 115.945312 89.335938 C 116.445312 88.832031 116.445312 88.035156 115.945312 87.574219 C 115.441406 87.070312 114.644531 87.070312 114.140625 87.574219 L 100.261719 101.453125 C 99.757812 101.957031 99.757812 102.753906 100.261719 103.257812 C 100.722656 103.761719 101.519531 103.761719 102.023438 103.257812 Z M 115.945312 89.335938 " fill-opacity="1" fill-rule="nonzero" />
</svg>